<?xml version="1.0" encoding="UTF-8"?>
<svg enable-background="new -53 -32 906 1984" version="1.1" viewBox="-53 -32 906 1984" xmlns="http://www.w3.org/2000/svg">
 <path d="m428.87 10.236c16.97-1.53 34.05-1.16 51.07-0.7 5.71 0.59 11.46 0.86 17.12 1.87 19.92 3.2 39.84 7.5 58.32 15.8 15.51 6.12 29.93 14.83 42.95 25.23 7.47 6.18 15.78 11.34 24.53 15.51 7.53 3.42 15.63 6.16 24.02 5.74 5.39 0.28 11.92-0.8 15.17-5.56 3.31-4.89-1.5-9.9-0.93-15.05 4.89-0.18 8.46 3.75 11.82 6.76 14.54 15.29 24.25 34.65 30.06 54.81 2.27 8.54 1.52 17.48 1.59 26.22 0.13 14.66-5.52 28.43-9.56 42.28-1.49 5.55-4.19 10.7-5.5 16.32-1.42 5.93-2.86 11.87-3.89 17.88-0.39 5.1-0.76 10.21-1.11 15.32-1.42 15.77-2.28 31.61-4.21 47.33-0.82 10.4-2.79 20.66-4.02 31.01-1.06 5.26-1.75 10.71-4.33 15.5-0.67-0.15-2-0.44-2.67-0.59-1.45-4.87-3.78-9.48-4.64-14.52-1.36-7.89-0.21-15.9-0.57-23.84 2-22.49 4.66-45.13 2.48-67.71-0.51-9.32-2.14-18.54-3.76-27.72-2.01-10.99-5.54-21.92-12.07-31.09-3.66-5.06-8.68-9.37-14.78-11.09-7.52-2.13-15.35-2.9-23.12-3.53-22.83-0.84-46.02-0.3-68.24 5.45-10.06 2.44-18.1 10.38-28.66 11.1-8.81 0.79-16.82-3.66-24.12-7.98-9.87-6-21.67-6.62-32.76-8.58-20.26-2.43-40.88-3.05-61.14-0.25-7.49 1.34-15.64 3.01-21.29 8.49-5.95 6.99-8.04 16.32-9.57 25.14-2.22 15.93-2.75 32.03-2.67 48.1 0.14 7-0.48 14.05 0.68 21 0.22 3.33-0.27 6.65-0.48 9.98-0.39 16.9 0.52 33.86-0.9 50.73-0.77 4.14-2.72 7.94-5.69 10.92-2.96-2.04-4.25-5.51-5.03-8.87-2.34-12.11-3.87-24.42-3.79-36.77-1.3-14.26-0.5-28.59-1.08-42.88-1.21-14.63 0.16-29.35-0.79-44-0.87-7.61-3.31-15-6.64-21.87-3.65-8.03-10.44-14.27-13.34-22.69-3.08-9.98-4.97-20.38-9.12-30.01-2.42-4.25-5.61-9.86-11.32-9.32-6.52-0.67-11.29 4.34-16.47 7.35-1.63 0.72-3.82 2.84-5.03 0.43 1.27-4.66 4.4-8.52 7.21-12.35 6.48-7.77 13.75-15.03 22.32-20.5 6.18-4.09 14.28-5 19.39-10.73 0.02-0.89 0.01-1.78-0.03-2.67-4.29-0.55-8.68-0.63-12.95 0.07-13.45 3.26-25.82 10.15-39.59 12.19-1.73 0.28-4.26 0.23-4.39-2.06 2.79-4.64 7.74-7.31 12.02-10.39 16.98-10.35 34.99-19.4 54.29-24.52 32.53-8.27 66.58-5.15 99.26-12.35 3.29-0.76 6.4-2.07 9.53-3.29 0.04-0.54 0.12-1.61 0.15-2.15-5.96-3.47-13.13-2.57-19.72-3.01-7.95-0.84-16.19-0.55-23.77-3.45-1.31-0.22-1.95-1.31-2.11-2.53 6.82-3.13 14.49-3.53 21.87-3.91z" fill="#582200" stroke="#582200" stroke-width=".5"/>
 <path d="m397.92 146.16c20.26-2.8 40.88-2.18 61.14 0.25 11.09 1.96 22.89 2.58 32.76 8.58 7.3 4.32 15.31 8.77 24.12 7.98 10.56-0.72 18.6-8.66 28.66-11.1 22.22-5.75 45.41-6.29 68.24-5.45 7.77 0.63 15.6 1.4 23.12 3.53 6.1 1.72 11.12 6.03 14.78 11.09 6.53 9.17 10.06 20.1 12.07 31.09 1.62 9.18 3.25 18.4 3.76 27.72 2.18 22.58-0.48 45.22-2.48 67.71-1.03 4.05-1 8.23-0.93 12.37 0.17 5.62-2.51 10.71-4.5 15.8-8.23 19.06-18.72 37.15-31.22 53.73-7.9 9.98-16.08 20.08-26.74 27.26-4.65 3.15-9.29 6.47-14.69 8.19-3.01-2.46-1.26-6.29-0.51-9.37 3.48-11.59 6.28-23.51 6.57-35.66-0.04-6.68-1.16-14.1-6.31-18.88-5.8-5.75-14.77-5.9-22.33-4.62-11.61 1.72-21.5 8.77-32.91 11.17 1.41-3.14 5.03-6.02 3.54-9.76-5.55 2.77-9.88 7.98-16.18 9.13-7.39 1.04-14.9-1.16-21.36-4.67-4.1-2.1-6.05-6.9-5.61-11.34 0.5-6.19 2.48-12.14 3.88-18.16 1.34-2.67 2.9-5.3 3.5-8.26 1.15-10.64 0.26-21.4 1.33-32.04 9.83 0.03 19.67-0.25 29.49 0.17 0.44 9.1 0.07 18.21 0.15 27.32-0.6 10.42 9.17 20.14 19.57 19.58 28.7-0.05 57.4-0.05 86.11 0 9.11 0.46 17.73-6.95 18.97-15.93 0.89-5.86 0.31-11.81 0.45-17.7-0.2-8.17 0.69-16.43-1.03-24.48 3.03-0.37 7.01 0.64 9.22-1.97 1.44-3.49 0.76-7.47-0.18-11.01-9.5-0.49-19.01 0.04-28.49-0.84-15.65 0.86-31.33 0.48-47 0.55-13.01-0.04-26.03 0.1-39.03 0.03-5.63-0.16-11.1 2.75-14.46 7.2-1.8 2.4-2.61 5.42-4.61 7.68-9.94 0.45-19.92 0.17-29.87 0.1-2.75-7.33-8.62-14.55-17.02-14.92-24.67-0.14-49.34-0.08-74.01-0.09-6.34-0.15-12.68-0.99-19.01-0.28-7.91 0.92-15.94-0.45-23.8 1.03-1.16-6.95-0.54-14-0.68-21-0.08-16.07 0.45-32.17 2.67-48.1 1.53-8.82 3.62-18.15 9.57-25.14 5.65-5.48 13.8-7.15 21.29-8.49m21.25 93.08c-1.78 0.71-3 2.21-4.1 3.7 2.31 2.39 5.87 1.53 8.82 1.31 6.24-1.3 12.64-1.07 18.97-1.02 9.77-0.15 19.32 2.35 29.04 2.84 3.88-0.04 8.37-2.8 7.66-7.22 0.82-4.41-3.72-6.91-7.2-8.19-7.44-0.61-14.95-0.43-22.41-0.11-10.58 1.48-21.07 4.15-30.78 8.69m135.24-8.57c-3.51 1.2-7.64 4.02-7.21 8.23-0.4 3.76 3.34 6.53 6.7 7.1 10.05-0.19 19.91-2.91 29.99-2.77 6.67-0.11 13.39-0.2 19.96 1.13 2.47-0.04 6.08 1.11 7.64-1.42-0.67-2.08-2.75-3.16-4.55-4.1-9.21-4.42-19.3-6.57-29.33-8.21-7.71-0.47-15.5-0.56-23.2 0.04z" fill="#ffae6e" stroke="#ffae6e" stroke-width=".5"/>
 <path d="m419.17 239.24c9.71-4.54 20.2-7.21 30.78-8.69 7.46-0.32 14.97-0.5 22.41 0.11 3.48 1.28 8.02 3.78 7.2 8.19 0.71 4.42-3.78 7.18-7.66 7.22-9.72-0.49-19.27-2.99-29.04-2.84-6.33-0.05-12.73-0.28-18.97 1.02-2.95 0.22-6.51 1.08-8.82-1.31 1.1-1.49 2.32-2.99 4.1-3.7z" fill="#562100" stroke="#562100" stroke-width=".5"/>
 <path d="m554.41 230.67c7.7-0.6 15.49-0.51 23.2-0.04 10.03 1.64 20.12 3.79 29.33 8.21 1.8 0.94 3.88 2.02 4.55 4.1-1.56 2.53-5.17 1.38-7.64 1.42-6.57-1.33-13.29-1.24-19.96-1.13-10.08-0.14-19.94 2.58-29.99 2.77-3.36-0.57-7.1-3.34-6.7-7.1-0.43-4.21 3.7-7.03 7.21-8.23z" fill="#562100" stroke="#562100" stroke-width=".5"/>
 <path d="m348.1 232c0.58 14.29-0.22 28.62 1.08 42.88-0.08 12.35 1.45 24.66 3.79 36.77-13.4-5.88-21.73-19.34-25.84-32.89-2.41-7.38-2.13-15.23-1.78-22.88 1.17-7.75 4.6-15.84 11.41-20.25 3.35-2.3 7.45-2.86 11.34-3.63z" fill="#ffae6e" stroke="#ffae6e" stroke-width=".5"/>
 <path d="m680.32 280c1.93-15.72 2.79-31.56 4.21-47.33 7.04 1.5 12.49 6.98 15.32 13.42 3.9 7.66 2.81 16.5 2.67 24.78-1.32 10.9-6.11 21.28-13 29.79-3.47 4.46-8.05 8.05-13.22 10.35 1.23-10.35 3.2-20.61 4.02-31.01z" fill="#ffae6e" stroke="#ffae6e" stroke-width=".5"/>
 <path d="m365.07 248.89c7.86-1.48 15.89-0.11 23.8-1.03 6.33-0.71 12.67 0.13 19.01 0.28 24.67 0.01 49.34-0.05 74.01 0.09 8.4 0.37 14.27 7.59 17.02 14.92 9.95 0.07 19.93 0.35 29.87-0.1 2-2.26 2.81-5.28 4.61-7.68 3.36-4.45 8.83-7.36 14.46-7.2 13 0.07 26.02-0.07 39.03-0.03 15.67-0.07 31.35 0.31 47-0.55 9.48 0.88 18.99 0.35 28.49 0.84 0.94 3.54 1.62 7.52 0.18 11.01-2.21 2.61-6.19 1.6-9.22 1.97 1.72 8.05 0.83 16.31 1.03 24.48-0.14 5.89 0.44 11.84-0.45 17.7-1.24 8.98-9.86 16.39-18.97 15.93-28.71-0.05-57.41-0.05-86.11 0-10.4 0.56-20.17-9.16-19.57-19.58-0.08-9.11 0.29-18.22-0.15-27.32-9.82-0.42-19.66-0.14-29.49-0.17-1.07 10.64-0.18 21.4-1.33 32.04-0.6 2.96-2.16 5.59-3.5 8.26-2.16 1.77-4.42 3.43-6.78 4.92-5.37 2.53-11.39 1.76-17.13 1.82-26.02 0-52.05-0.03-78.07 0.02-6.63 0.3-12.83-3.8-16.28-9.26-3.71-6.11-2.99-13.52-3.01-20.36 0.22-9.49-0.67-19.07 1.01-28.48-3.5 0.02-7.22 0-9.94-2.54 0.21-3.33 0.7-6.65 0.48-9.98m18.1 17.98c-0.04 11.35-0.05 22.7 0 34.05-0.15 5.5 5.41 9.77 10.68 9.36 28.35 0.01 56.71 0.02 85.05-0.01 5.22 0.34 10.73-3.92 10.57-9.36 0.04-11.02-0.03-22.04 0.03-33.06 0.62-5.32-4.22-10.76-9.59-10.56-6.8-0.07-13.6 0.05-20.4-0.07-0.49 0.52-0.97 1.05-1.45 1.58-1.89-0.44-3.82-0.66-5.75-0.8-3.69-1.67-8.49-1.62-11.98 0.54 0.14-0.31 0.44-0.93 0.58-1.24-16.02-0.05-32.05-0.02-48.07-0.01-5.16-0.31-10.04 4.35-9.67 9.58m160.3-8.38c-3.15 1.98-5.15 5.62-4.97 9.36-0.01 10.69-0.03 21.39 0.01 32.08-0.31 5.59 4.74 10.64 10.34 10.33 28.69 0.03 57.38 0.06 86.07-0.01 5.61 0.3 10.34-4.81 10.22-10.31 0.08-10.69 0.05-21.4 0.01-32.09 0.27-5.46-4.54-11.14-10.2-10.58-16.16-0.02-32.32 0.09-48.47-0.06-0.47 0.54-0.93 1.08-1.39 1.63-1.9-0.5-3.85-0.7-5.79-0.84-3.75-1.78-8.42-1.38-12.09 0.39 0.17-0.27 0.51-0.8 0.68-1.06-5.68-0.16-11.36 0.01-17.03-0.08-2.48 0.11-5.26-0.34-7.39 1.24z" fill="#2e2f2f" stroke="#2e2f2f" stroke-width=".5"/>
 <path d="m383.17 266.87c-0.37-5.23 4.51-9.89 9.67-9.58 16.02-0.01 32.05-0.04 48.07 0.01-0.14 0.31-0.44 0.93-0.58 1.24-2.23 3.48-4.82 7.05-4.98 11.35-0.32 5.81-0.69 12.03 2.19 17.33 2.29 4.4 6.09 9 11.4 9.37 5.92 0.66 11.21-3.77 13.5-8.93 2.56-5.96 3.62-12.75 1.98-19.1-0.85-4.08-2.91-7.74-4.91-11.34 6.8 0.12 13.6 0 20.4 0.07 5.37-0.2 10.21 5.24 9.59 10.56-0.06 11.02 0.01 22.04-0.03 33.06 0.16 5.44-5.35 9.7-10.57 9.36-28.34 0.03-56.7 0.02-85.05 0.01-5.27 0.41-10.83-3.86-10.68-9.36-0.05-11.35-0.04-22.7 0-34.05z" fill="#ffae6e" stroke="#ffae6e" stroke-width=".5"/>
 <path d="m440.33 258.54c3.49-2.16 8.29-2.21 11.98-0.54-1.38 1.67-3.09 3.21-3.82 5.31-0.64 3.92-0.78 8.6 2.38 11.55 1.25 1.71 3.52 1.82 5.42 1.37 3.65-1.92 5.27-6.41 4.8-10.34-0.48-2.56-1.85-4.81-3.03-7.09 0.48-0.53 0.96-1.06 1.45-1.58 2 3.6 4.06 7.26 4.91 11.34 1.64 6.35 0.58 13.14-1.98 19.1-2.29 5.16-7.58 9.59-13.5 8.93-5.31-0.37-9.11-4.97-11.4-9.37-2.88-5.3-2.51-11.52-2.19-17.33 0.16-4.3 2.75-7.87 4.98-11.35z" fill="#172627" stroke="#172627" stroke-width=".5"/>
 <path d="m543.47 258.49c2.13-1.58 4.91-1.13 7.39-1.24 5.67 0.09 11.35-0.08 17.03 0.08-0.17 0.26-0.51 0.79-0.68 1.06-4.42 6.35-6.78 14.48-4.97 22.14 1.07 5.31 3.36 10.85 7.95 14.04 4.65 3.37 11.78 2.62 15.4-1.95 6.46-6.43 6.69-16.25 5.49-24.71-0.72-3.87-2.84-7.25-4.6-10.7 16.15 0.15 32.31 0.04 48.47 0.06 5.66-0.56 10.47 5.12 10.2 10.58 0.04 10.69 0.07 21.4-0.01 32.09 0.12 5.5-4.61 10.61-10.22 10.31-28.69 0.07-57.38 0.04-86.07 0.01-5.6 0.31-10.65-4.74-10.34-10.33-0.04-10.69-0.02-21.39-0.01-32.08-0.18-3.74 1.82-7.38 4.97-9.36z" fill="#ffae6e" stroke="#ffae6e" stroke-width=".5"/>
 <path d="m567.21 258.39c3.67-1.77 8.34-2.17 12.09-0.39-1.72 2.06-4.07 4.08-4.04 7-0.16 3.2-0.42 6.97 2.11 9.41 1.35 1.86 3.75 2.44 5.92 1.83 2.99-1.66 4.51-5.08 4.94-8.34 0.21-3.32-1.76-6.2-3.14-9.06 0.46-0.55 0.92-1.09 1.39-1.63 1.76 3.45 3.88 6.83 4.6 10.7 1.2 8.46 0.97 18.28-5.49 24.71-3.62 4.57-10.75 5.32-15.4 1.95-4.59-3.19-6.88-8.73-7.95-14.04-1.81-7.66 0.55-15.79 4.97-22.14z" fill="#172527" stroke="#172527" stroke-width=".5"/>
 <path d="m452.31 258c1.93 0.14 3.86 0.36 5.75 0.8 1.18 2.28 2.55 4.53 3.03 7.09 0.47 3.93-1.15 8.42-4.8 10.34-1.9 0.45-4.17 0.34-5.42-1.37-3.16-2.95-3.02-7.63-2.38-11.55 0.73-2.1 2.44-3.64 3.82-5.31z" fill="#fff" stroke="#fff" stroke-width=".5"/>
 <path d="m579.3 258c1.94 0.14 3.89 0.34 5.79 0.84 1.38 2.86 3.35 5.74 3.14 9.06-0.43 3.26-1.95 6.68-4.94 8.34-2.17 0.61-4.57 0.03-5.92-1.83-2.53-2.44-2.27-6.21-2.11-9.41-0.03-2.92 2.32-4.94 4.04-7z" fill="#fff" stroke="#fff" stroke-width=".5"/>
 <path d="m363.69 309.6c1.42-16.87 0.51-33.83 0.9-50.73 2.72 2.54 6.44 2.56 9.94 2.54-1.68 9.41-0.79 18.99-1.01 28.48 0.02 6.84-0.7 14.25 3.01 20.36 3.45 5.46 9.65 9.56 16.28 9.26 26.02-0.05 52.05-0.02 78.07-0.02 5.74-0.06 11.76 0.71 17.13-1.82 0.34 0.16 1.02 0.47 1.36 0.62-0.67 8.91-3.8 17.7-1.89 26.7-10.6-2.14-21.32-5.49-32.25-3.67-8.65 1.02-16.92 6.13-20.83 14.04-4.36 9.23-4.17 19.63-5.43 29.55-0.56 3.09-1.15 7.22-4.6 8.38-2.94 0.5-5.59-1.47-7.92-3-10.33-7.88-19.38-17.33-27.54-27.42-10.07-12.58-18.23-26.95-22.28-42.64-0.87-3.57-1.87-7.11-2.94-10.63z" fill="#ffae6e" stroke="#ffae6e" stroke-width=".5"/>
 <path d="m663.16 299.93c-0.07-4.14-0.1-8.32 0.93-12.37 0.36 7.94-0.79 15.95 0.57 23.84 0.86 5.04 3.19 9.65 4.64 14.52-1.43 8.38-3.76 16.66-6.28 24.79-3.12 9.55-6.86 19.17-13.33 27-10.65 12.47-23.83 22.43-37.27 31.68-17.73 11.97-36.49 22.45-56.09 31.05-2.22 0.98-4.53 1.75-6.84 2.48-0.87 1.8-1.39 3.73-1.85 5.67-16.53 8.53-33.13 16.93-49.79 25.2-6.3 3.07-12.35 6.71-18.99 9.02-0.47-13.68 0.41-27.4-0.31-41.09-17.02-6.73-33.32-15.2-49.1-24.45-17.87-10.87-35.69-22.51-49.81-38.14-6.35-6.69-9.77-15.41-13.07-23.85-3.91-11.12-6.67-22.63-8.99-34.17l0.42-0.59c2.97-2.98 4.92-6.78 5.69-10.92 1.07 3.52 2.07 7.06 2.94 10.63 4.05 15.69 12.21 30.06 22.28 42.64 8.16 10.09 17.21 19.54 27.54 27.42 2.33 1.53 4.98 3.5 7.92 3 3.45-1.16 4.04-5.29 4.6-8.38 1.26-9.92 1.07-20.32 5.43-29.55 3.91-7.91 12.18-13.02 20.83-14.04 10.93-1.82 21.65 1.53 32.25 3.67-1.91-9 1.22-17.79 1.89-26.7-0.34-0.15-1.02-0.46-1.36-0.62 2.36-1.49 4.62-3.15 6.78-4.92-1.4 6.02-3.38 11.97-3.88 18.16-0.44 4.44 1.51 9.24 5.61 11.34 6.46 3.51 13.97 5.71 21.36 4.67 6.3-1.15 10.63-6.36 16.18-9.13 1.49 3.74-2.13 6.62-3.54 9.76 11.41-2.4 21.3-9.45 32.91-11.17 7.56-1.28 16.53-1.13 22.33 4.62 5.15 4.78 6.27 12.2 6.31 18.88-0.29 12.15-3.09 24.07-6.57 35.66-0.75 3.08-2.5 6.91 0.51 9.37 5.4-1.72 10.04-5.04 14.69-8.19 10.66-7.18 18.84-17.28 26.74-27.26 12.5-16.58 22.99-34.67 31.22-53.73 1.99-5.09 4.67-10.18 4.5-15.8m-91.91 46.38c-14.65 3.66-27.39 12.97-42.37 15.64-9.11 1.41-18.41 2.58-27.63 1.47-11.92-1.73-22.95-6.84-34.35-10.49-5.3-1.56-11.46-3.44-16.69-0.71-3.99 1.82-4.41 6.63-5.6 10.32-2.89 10.95-6.84 22.64-3.23 33.91 2.73 8.69 9.98 14.85 17.52 19.42 8.41 5.32 18.78 4.6 28.17 6.73 4.99 1.3 9.53-1.31 13.5-4 5.78-3.71 13.25-5.7 19.92-3.36 5.48 1.78 8.49 7.96 14.46 8.67 5.16 0.38 9.86-2.38 14.26-4.71 6.89-4.16 13.74-8.84 18.56-15.42 6.32-7.96 9.71-17.72 12.67-27.31 1.77-6.11 3.79-12.23 4.33-18.6 0.17-3.31 0.07-7.06-2.16-9.72-2.96-2.98-7.59-2.55-11.36-1.84z" fill="#e18d54" stroke="#e18d54" stroke-width=".5"/>
 <path d="m571.25 346.31c3.77-0.71 8.4-1.14 11.36 1.84 2.23 2.66 2.33 6.41 2.16 9.72-0.54 6.37-2.56 12.49-4.33 18.6-2.96 9.59-6.35 19.35-12.67 27.31-4.82 6.58-11.67 11.26-18.56 15.42-4.4 2.33-9.1 5.09-14.26 4.71-5.97-0.71-8.98-6.89-14.46-8.67-6.67-2.34-14.14-0.35-19.92 3.36-3.97 2.69-8.51 5.3-13.5 4-9.39-2.13-19.76-1.41-28.17-6.73-7.54-4.57-14.79-10.73-17.52-19.42-3.61-11.27 0.34-22.96 3.23-33.91 1.19-3.69 1.61-8.5 5.6-10.32 5.23-2.73 11.39-0.85 16.69 0.71 11.4 3.65 22.43 8.76 34.35 10.49 9.22 1.11 18.52-0.06 27.63-1.47 14.98-2.67 27.72-11.98 42.37-15.64m-2 10.93c-8.46 1.66-13.87 9.04-21.43 12.54-8.42 3.86-17.73 5.09-26.83 6.32-11.97 1.4-24.1 2.28-36.12 0.99-7.18-0.73-14.52-1.85-21-5.2-4.65-2.42-8.46-6.9-14.02-7.17-2.08-0.39-4.16 0.28-5.29 2.11 1.76 2.41 3.88 4.75 6.92 5.44 13.99 3.93 27.61 10.42 42.4 10.38 10.4-0.49 20.82-0.98 31.12-2.58 8.12-1.29 16.39-2.19 24.2-4.91 3.69-1.28 6.48-4.09 9.6-6.31 4.91-3.49 11.67-2.02 16.56-5.52 1.09-0.92 2.75-2.27 1.9-3.87-0.98-3.47-5.31-2.86-8.01-2.22m-87.47 37.62c0.34 2.91 3.12 4.39 5.4 5.72 5.67 2.99 11.47 6.1 17.91 7.02 5.03 0.7 10.21 0.73 15.19-0.37 5.17-1.3 9.93-3.81 14.58-6.36 2.15-1.33 4.58-2.55 5.88-4.82-0.25-0.18-0.76-0.53-1.02-0.71-6.28 0.81-11.92 4.25-18.22 5.12-9.06 2.14-18.49 0.79-27.27-1.89-4.17-1.19-8.01-3.65-12.45-3.71z" fill="#ffae6e" stroke="#ffae6e" stroke-width=".5"/>
 <path d="m569.25 357.24c2.7-0.64 7.03-1.25 8.01 2.22 0.85 1.6-0.81 2.95-1.9 3.87-4.89 3.5-11.65 2.03-16.56 5.52-3.12 2.22-5.91 5.03-9.6 6.31-7.81 2.72-16.08 3.62-24.2 4.91-10.3 1.6-20.72 2.09-31.12 2.58-14.79 0.04-28.41-6.45-42.4-10.38-3.04-0.69-5.16-3.03-6.92-5.44 1.13-1.83 3.21-2.5 5.29-2.11 5.56 0.27 9.37 4.75 14.02 7.17 6.48 3.35 13.82 4.47 21 5.2 12.02 1.29 24.15 0.41 36.12-0.99 9.1-1.23 18.41-2.46 26.83-6.32 7.56-3.5 12.97-10.88 21.43-12.54z" fill="#e18d54" stroke="#e18d54" stroke-width=".5"/>
 <path d="m481.78 394.86c4.44 0.06 8.28 2.52 12.45 3.71 8.78 2.68 18.21 4.03 27.27 1.89 6.3-0.87 11.94-4.31 18.22-5.12 0.26 0.18 0.77 0.53 1.02 0.71-1.3 2.27-3.73 3.49-5.88 4.82-4.65 2.55-9.41 5.06-14.58 6.36-4.98 1.1-10.16 1.07-15.19 0.37-6.44-0.92-12.24-4.03-17.91-7.02-2.28-1.33-5.06-2.81-5.4-5.72z" fill="#e18d54" stroke="#e18d54" stroke-width=".5"/>
 <path d="m480.3 543.29c6.82-0.49 13.65-0.1 20.48-0.26 8.41 0.09 16.82 0.08 25.22-0.02 6.86 0.15 13.73-0.12 20.58 0.19 3.03 9.75 1.47 20.28-2.49 29.51-3.02 6.93-7.9 12.88-13.54 17.85-1.79 1.71-3.91 3.18-5.16 5.36 0.16 2.65 0.87 5.22 1.42 7.82 2.23 9.53 2.87 19.35 4.79 28.95 2.19 20.61 5.02 41.19 6.1 61.91 2.01 13.73 2.07 27.64 3.58 41.42 0.52 12.95 1.17 25.9 2.02 38.84-0.06 12.82 1.14 25.59 1.09 38.41-0.24 15.2 0.17 30.42-0.33 45.62-0.85 8.8-0.4 17.68-1.48 26.47-0.67 11.82-1.69 23.59-3.32 35.32-1.77 12.49-4.53 24.81-8.02 36.93-3.34 7.47-5.89 15.89-12.23 21.46-3.76 3.32-9.59 1.89-12.73-1.56-5.68-6.05-8.04-14.26-11.08-21.79-1.75-6.67-3.32-13.39-4.91-20.1-2.26-9.46-2.91-19.19-4.38-28.77-3.18-37.32-4.32-74.83-2.86-112.25 1.37-44.59 4.47-89.12 9.14-133.48 0.75-9.16 2.61-18.24 2.4-27.47 0.8-2.16 1.53-4.37 1.78-6.67 1.43-10.44 2.79-20.93 5.56-31.12-7.6-7.04-15.69-14.17-19.51-24.1-3.89-8.88-4.42-19.12-2.12-28.47z" fill="#ff5353" stroke="#ff5353" stroke-width=".5"/>
 <path d="m478.55 441.72c0.72 13.69-0.16 27.41 0.31 41.09 6.64-2.31 12.69-5.95 18.99-9.02 16.66-8.27 33.26-16.67 49.79-25.2 0.46-1.94 0.98-3.87 1.85-5.67-0.6 10.3-0.3 20.64-0.23 30.96-0.34 11.97 4.96 24.29 14.73 31.44 0.21 0.81 0.44 1.63 0.66 2.45-10.78 13.87-27.26 21.71-43.68 26.81 1.12 3.11 3.13 5.76 5.03 8.43-8.4 0.1-16.81 0.11-25.22 0.02 1.92-2.61 3.71-5.3 5.35-8.09-12.42-4.52-25.05-9.37-35.19-18.14-3.19-3.05-7.61-5.8-8.14-10.58 9.44-6.5 15.88-17.77 15.64-29.35-0.35-11.72-0.21-23.45 0.11-35.15z" fill="#ffae6e" stroke="#ffae6e" stroke-width=".5"/>
 <path d="m419.94 484.98c7.94-7.05 18.3-11.49 28.96-11.78 2.19-0.06 4.52-0.32 6.54 0.77-0.13 7.17-1.32 14.76 1.84 21.5 1.28 3.87 4.6 6.76 5.52 10.75 0.53 4.78 4.95 7.53 8.14 10.58 10.14 8.77 22.77 13.62 35.19 18.14-1.64 2.79-3.43 5.48-5.35 8.09-6.83 0.16-13.66-0.23-20.48 0.26-2.3 9.35-1.77 19.59 2.12 28.47-0.61 4.27-3.45 7.54-6.64 10.2-3.02-3.42-7.15-5.52-10.81-8.15-17.83-12.46-35.03-27-45.8-46.24-4.47-7.7-8.03-16.5-7.21-25.56 0.62-6.38 3.46-12.49 7.98-17.03z" fill="#00ddd5" stroke="#00ddd5" stroke-width=".5"/>
 <path d="m571.34 474.06c4.47-1.83 9.61-0.66 14.23 0.07 7.9 1.68 15.26 5.42 21.26 10.83 6.72 6.4 9.71 16.37 7.8 25.43-1.57 8.07-5.66 15.36-9.96 22.26-11.57 17.51-27.98 31.15-45.22 42.81-3.36 2.38-7.66 4.22-9.11 8.4-0.93-4.3-4.3-7.35-6.25-11.15 3.96-9.23 5.52-19.76 2.49-29.51-6.85-0.31-13.72-0.04-20.58-0.19-1.9-2.67-3.91-5.32-5.03-8.43 16.42-5.1 32.9-12.94 43.68-26.81-0.22-0.82-0.45-1.64-0.66-2.45 3.08-4.8 6.3-9.71 7.35-15.42 0.59-5.26 0.23-10.57 0-15.84z" fill="#00ddd5" stroke="#00ddd5" stroke-width=".5"/>
 <path d="m416.02 487.08c1.17-0.92 2.5-1.63 3.92-2.1-4.52 4.54-7.36 10.65-7.98 17.03-0.82 9.06 2.74 17.86 7.21 25.56 10.77 19.24 27.97 33.78 45.8 46.24 3.66 2.63 7.79 4.73 10.81 8.15 4.21 11.15 9.06 22.07 12.53 33.49 2.16 6.05 3 12.58 6.28 18.2 0.21 9.23-1.65 18.31-2.4 27.47-4.67 44.36-7.77 88.89-9.14 133.48-0.59 2.16-1.21 4.33-1.65 6.55-4.13-6.71-6.89-14.12-10.81-20.94-7.19-14.76-15.72-28.81-24.08-42.94-6.87-10.97-13.98-21.84-21.99-32.03-6.79-6.89-12.5-14.86-20.13-20.91-7.85-7-16.93-12.7-26.89-16.15-3.02-1.09-6.91-2.55-7.23-6.27 0.68-2.8 2.63-5.05 4.47-7.18 7.92-8.41 16.69-16.03 24.05-24.96 5.34-5.99 12.49-10.23 17.16-16.85 1.53-2.27 2.12-5.95-0.22-7.89-2.41-1.72-5.4-2.27-8.21-2.98-13.19-2.75-26.23-6.13-39.22-9.7-4.95-1.26-9.97-3.53-15.18-2.4-0.05 0.5-0.16 1.5-0.21 2.01-3.16-15.22-9.64-30.51-21.71-40.77 0.43 0.11 1.29 0.35 1.72 0.46 11.88-10.08 24.55-19.19 36.78-28.84 15.45-11.9 30.92-23.77 46.32-35.73z" fill="#f2f2f2" stroke="#c8c8c8" stroke-linecap="round" stroke-linejoin="round"/>
 <path d="m606.83 484.96c1.41 0.49 2.77 1.15 3.97 2.09 21.98 16.98 44 33.92 66 50.88 6.69 5.29 13.85 10.1 19.62 16.44 2.82 2.9 4.41 6.71 5.79 10.46-0.18 4.58-1.53 9.22-4.92 12.48-6.97 7.19-17.26 8.97-26.53 11.45-13.1 3.75-26.35 6.92-39.53 10.38-6.02 1.55-12.39 1.62-18.22 3.89-2.58 0.91-4.45 3.76-3.79 6.5 0.71 3.68 3.45 6.48 6.17 8.86 6.29 5.34 11.8 11.52 17.75 17.24 4.81 4.54 8.65 9.99 13.47 14.53 2.83 2.84 6.03 5.4 8.25 8.78 2.05 2.78-0.14 6.69-3.02 7.84-4.58 2.02-9.32 3.68-13.83 5.86-0.26-5.67 0.56-11.41-0.65-17.01-0.57 10.04-0.32 20.11-0.73 30.16-4.37 0.23-8.75 0.19-13.12 0.17-1.23 0.16-2.59 0.19-3.54 1.1-12.88 11.8-22.17 26.75-31.63 41.27-9.22 14.76-17.33 30.18-25.48 45.55-5.89 12.92-12.42 25.55-17.86 38.68l-0.61 0.71c0.05-12.82-1.15-25.59-1.09-38.41-0.85-12.94-1.5-25.89-2.02-38.84-1.51-13.78-1.57-27.69-3.58-41.42-1.08-20.72-3.91-41.3-6.1-61.91 1.61-1.57 3-3.4 3.47-5.63 3.92-14.79 9.25-29.16 15.27-43.2 1.45-4.18 5.75-6.02 9.11-8.4 17.24-11.66 33.65-25.3 45.22-42.81 4.3-6.9 8.39-14.19 9.96-22.26 1.91-9.06-1.08-19.03-7.8-25.43m-58.32 170.61c-0.26 9.82-0.49 19.71 0.11 29.52 29.19 0.25 58.39 0.15 87.58 0.07 0.46-9.85 0.29-19.75 0.05-29.62-29.24-0.11-58.5-0.16-87.74 0.03z" fill="#f2f2f2" stroke="#c8c8c8" stroke-linecap="round" stroke-linejoin="round"/>
 <path d="m237.86 537.52c9.71 0.24 19.31-1.45 29.02-1.31 7.32-0.62 14.66-0.88 22.01-0.98 15.53-1.08 31.04 5.46 42.31 15.96 12.07 10.26 18.55 25.55 21.71 40.77 4.71 23.46 9.39 46.93 13.84 70.45 6.89 32.92 13.42 65.91 20.1 98.88 2.6 11.7 4.28 23.63 7.77 35.12-10.87 1.36-21.77 2.52-32.7 3.14-8.71 0.88-17.57 1.03-26.04 3.41-4.33 1.2-8.28 4.48-9.32 8.99-0.84 4.04 2.29 7.84 6.03 8.98 6.61 2.09 13.67 1.71 20.48 2.73-5.49 2.38-11.88 1.35-17.2 4.23-3.7 1.82-6.67 5.74-6.32 10 0.87 4.77 5.87 7.05 10.22 7.61 8.01 1.16 16.1 1.83 24.19 2.21-7.22 0.84-14.57 1.02-21.64 2.88-3.95 1.01-7.76 3.7-9 7.74-0.6 2.57-0.56 5.72 1.49 7.67 2.52 2.6 6.28 3.24 9.71 3.77 7.42 1.04 14.91 1.74 22.42 1.67-3.01 1.07-6.11 2.02-8.86 3.69-4.99 3.19-5.66 11.69-0.52 15.08 4.83 3.26 11.01 2.82 16.55 3.74 13.26 2.03 26.7 1.67 40.08 1.6 2.45 14.09 5.22 28.13 8.16 42.13 3.6 12.72 5.05 26.13 3.52 39.29-1.5 9.85-5.48 20.07-13.69 26.21-3.1 2.5-6.77 4.15-10.56 5.29 0.02 0.18 0.07 0.52 0.09 0.69-10.13 2.28-20.54 1.31-30.83 1.43-23.39 0.08-46.78-0.03-70.17-0.01-13.25-0.76-26.56-0.09-39.83-0.36-26.67 0.09-53.34-0.18-80.01-0.08-7.12-0.03-14.13-1.38-21.16-2.27-14.93-3.09-29.5-10.67-38.59-23.21-5.71-8.25-7.73-18.28-10.26-27.81 13.7-5.9 26.36-13.94 38.68-22.3 6.81-4.8 13.55-9.72 19.91-15.11 2.79-2.52 5.95-5.52 5.97-9.57 0.32-5.06-4.87-8.83-9.58-8.72-6.97-0.32-12.55 4.52-18.91 6.56 7.1-5.88 15.33-10.39 21.73-17.09 2.65-2.6 3.87-6.62 2.56-10.17-2.5-4.62-8.55-6.13-13.34-4.62-6.3 1.85-11.96 5.3-17.95 7.9 6.07-5.61 13.56-9.54 19.12-15.71 2.55-2.62 3.45-6.9 1.8-10.2-2.84-4.61-8.99-5.29-13.78-3.84-6.57 1.93-12.5 5.48-18.56 8.58-9.15 5.39-18.76 9.97-28.51 14.15 14.93-12.9 29.29-26.56 41.82-41.85 2.53-3.17 4.73-7.28 3.4-11.42-2.19-4.78-8.38-6.17-13.01-4.41-6.22 2.3-11.31 6.73-16.58 10.62-10.97 8.71-21.93 17.43-33.19 25.77-5.2-18.33-10.15-36.74-15.67-54.99-1.83-8.75-5.01-17.12-6.96-25.84-8.63-29.85-16.92-59.79-25.17-89.74-3.46-9.92-5.17-20.34-8.55-30.28-3.12-12.07-7.84-23.73-9.64-36.11-1.81-9.4-1.25-19.05-1.07-28.56 1.3-12.62 7.15-25.29 17.57-32.9 5.3-3.82 11.48-6.34 17.77-7.99 18.63-2.64 37.52-2.32 56.24-4.01 7.72-0.92 15.59 0.29 23.21-1.52 10.55-0.97 21.16-0.9 31.7-1.92 5.68 0.09 11.32-0.39 16.95-1.07 11.37 0.04 22.7-0.94 34.02-1.88 8.35-0.05 16.71-0.26 25.02-1.09z" fill="#003342" stroke="#003342" stroke-width=".5"/>
 <path d="m482.42 571.76c3.82 9.93 11.91 17.06 19.51 24.1-2.77 10.19-4.13 20.68-5.56 31.12-0.25 2.3-0.98 4.51-1.78 6.67-3.28-5.62-4.12-12.15-6.28-18.2-3.47-11.42-8.32-22.34-12.53-33.49 3.19-2.66 6.03-5.93 6.64-10.2z" fill="#00c2b9" stroke="#00c2b9" stroke-width=".5"/>
 <path d="m530.55 590.56c5.64-4.97 10.52-10.92 13.54-17.85 1.95 3.8 5.32 6.85 6.25 11.15-6.02 14.04-11.35 28.41-15.27 43.2-0.47 2.23-1.86 4.06-3.47 5.63-1.92-9.6-2.56-19.42-4.79-28.95-0.55-2.6-1.26-5.17-1.42-7.82 1.25-2.18 3.37-3.65 5.16-5.36z" fill="#00c2b9" stroke="#00c2b9" stroke-width=".5"/>
 <path d="m353.12 589.95c5.21-1.13 10.23 1.14 15.18 2.4 12.99 3.57 26.03 6.95 39.22 9.7 2.81 0.71 5.8 1.26 8.21 2.98 2.34 1.94 1.75 5.62 0.22 7.89-4.67 6.62-11.82 10.86-17.16 16.85-7.36 8.93-16.13 16.55-24.05 24.96-1.84 2.13-3.79 4.38-4.47 7.18 0.32 3.72 4.21 5.18 7.23 6.27 9.96 3.45 19.04 9.15 26.89 16.15 7.63 6.05 13.34 14.02 20.13 20.91 8.01 10.19 15.12 21.06 21.99 32.03 8.36 14.13 16.89 28.18 24.08 42.94 3.92 6.82 6.68 14.23 10.81 20.94 0.4 8.1 0.12 16.23 0.23 24.35-9.29 0.3-18.36-2.23-27.59-2.87-8.8-0.6-17.38-2.67-26.07-3.97-1.65-0.41-3.27 0.01-4.67 0.9-0.34-0.17-1.02-0.51-1.35-0.68 3.38-3.54 6.65-7.83 6.39-13 0.2-4.95-4.03-8.89-8.66-9.7-8.28-1.63-16.72 0.23-25.06 0.23-3.49-11.49-5.17-23.42-7.77-35.12-6.68-32.97-13.21-65.96-20.1-98.88-4.45-23.52-9.13-46.99-13.84-70.45 0.05-0.51 0.16-1.51 0.21-2.01z" fill="#f2f2f2" stroke="#c8c8c8" stroke-linecap="round" stroke-linejoin="round"/>
 <path d="m548.51 655.57c29.24-0.19 58.5-0.14 87.74-0.03 0.24 9.87 0.41 19.77-0.05 29.62-29.19 0.08-58.39 0.18-87.58-0.07-0.6-9.81-0.37-19.7-0.11-29.52z" fill="#dd2c08" stroke="#dd2c08" stroke-width=".5"/>
 <path d="m619.97 687.06c0.95-0.91 2.31-0.94 3.54-1.1 0.52 1.57 1.05 3.16 1.72 4.7 8.02 16.31 14.06 33.69 17.11 51.63 0.86 8.3 2.24 16.69 1.08 25.04-1.22 9.98-3.48 20.3-9.49 28.59-3.23 4.68-6.41 9.55-11.02 13-15.99 13.1-36.75 18.74-57.05 20.11-6.87 0.27-14.13 2.31-20.66-0.77-0.07-5.24 0.03-10.48-0.2-15.7 5.44-13.13 11.97-25.76 17.86-38.68 8.15-15.37 16.26-30.79 25.48-45.55 9.46-14.52 18.75-29.47 31.63-41.27z" fill="#f2f2f2" stroke="#c8c8c8" stroke-linecap="round" stroke-linejoin="round"/>
 <path d="m361.92 799.55c10.93-0.62 21.83-1.78 32.7-3.14 8.34 0 16.78-1.86 25.06-0.23 4.63 0.81 8.86 4.75 8.66 9.7 0.26 5.17-3.01 9.46-6.39 13 0.33 0.17 1.01 0.51 1.35 0.68 3.69 1.91 8.2 4.49 8.07 9.29 0.85 5.71-3 10.3-6.66 14.12 3.34 1.77 7.42 3.14 9.26 6.73 1.12 2.95 0.92 6.36-0.04 9.34-1.59 3.8-5.1 6.25-7.97 9.04 3.62 0.75 8.05 1.04 10.22 4.51 4.11 6.37 1 14.96-4.65 19.32-5.32 2.79-11.43 3.42-17.34 3.64-13.38 0.07-26.82 0.43-40.08-1.6-5.54-0.92-11.72-0.48-16.55-3.74-5.14-3.39-4.47-11.89 0.52-15.08 2.75-1.67 5.85-2.62 8.86-3.69-7.51 0.07-15-0.63-22.42-1.67-3.43-0.53-7.19-1.17-9.71-3.77-2.05-1.95-2.09-5.1-1.49-7.67 1.24-4.04 5.05-6.73 9-7.74 7.07-1.86 14.42-2.04 21.64-2.88-8.09-0.38-16.18-1.05-24.19-2.21-4.35-0.56-9.35-2.84-10.22-7.61-0.35-4.26 2.62-8.18 6.32-10 5.32-2.88 11.71-1.85 17.2-4.23-6.81-1.02-13.87-0.64-20.48-2.73-3.74-1.14-6.87-4.94-6.03-8.98 1.04-4.51 4.99-7.79 9.32-8.99 8.47-2.38 17.33-2.53 26.04-3.41z" fill="#ffae6e" stroke="#ffae6e" stroke-width=".5"/>
 <path d="m132.21 819.03c4.63-1.76 10.82-0.37 13.01 4.41 1.33 4.14-0.87 8.25-3.4 11.42-12.53 15.29-26.89 28.95-41.82 41.85 9.75-4.18 19.36-8.76 28.51-14.15 6.06-3.1 11.99-6.65 18.56-8.58 4.79-1.45 10.94-0.77 13.78 3.84 1.65 3.3 0.75 7.58-1.8 10.2-5.56 6.17-13.05 10.1-19.12 15.71 5.99-2.6 11.65-6.05 17.95-7.9 4.79-1.51 10.84 0 13.34 4.62 1.31 3.55 0.09 7.57-2.56 10.17-6.4 6.7-14.63 11.21-21.73 17.09 6.36-2.04 11.94-6.88 18.91-6.56 4.71-0.11 9.9 3.66 9.58 8.72-0.02 4.05-3.18 7.05-5.97 9.57-6.36 5.39-13.1 10.31-19.91 15.11-12.32 8.36-24.98 16.4-38.68 22.3-5.25 1.08-11.47 1.54-15.96-2.01-3.85-2.83-6.84-8.02-4.92-12.8 0.81-3.16 3.86-4.78 5.56-7.36-6.94 0.68-15.33-3.21-16.31-10.76-0.83-4.66 2.63-8.24 5.53-11.36-6.14 0.68-12.48-2.72-15.13-8.32-0.82-3.05-0.85-6.71 1.29-9.25 1.22-1.56 2.54-3.02 3.82-4.51-4.87-0.94-9.98-2.88-12.31-7.62-0.59-3.64-0.83-7.84 1.69-10.84 5.04-6.61 12.06-11.26 18.32-16.6 11.26-8.34 22.22-17.06 33.19-25.77 5.27-3.89 10.36-8.32 16.58-10.62z" fill="#ffae6e" stroke="#ffae6e" stroke-width=".5"/>
 <path d="m633.98 921c27.68-6.14 54.68-17.11 77.38-34.3-0.727 0.55 0.108 5.489 0.201 6.392 0.21 2.026 0.553 4.034 0.784 6.059 1.005 8.815 1.473 17.698 2.296 26.534 1.682 18.055 3.55 36.099 4.879 54.184 1.512 20.58 3.733 41.144 5.64 61.692 1.886 20.334 3.68 40.686 5.582 61.012 0.781 8.348 1.502 16.702 2.234 25.054 1.03 11.746 2.084 23.491 3.364 35.212 1.088 9.961 2.068 19.934 2.827 29.925 0.36 4.742 0.545 9.502 0.938 14.241 0.413 4.978 1.164 9.919 1.394 14.914 1.1 4.93 0.59 10.01 1.41 14.98 1.24 11.93 2.2 23.94 1.67 35.97-0.17 7.12-2.64 14.16-6.81 19.94-6.21 7.98-15.33 13.1-24.67 16.6-13.66 5.21-28.3 6.81-42.64 9-14.07 2.5-28.4 2.44-42.64 2.06-7.1-0.27-14.01-2.24-20.7-4.52-16.28-5.03-28.89-18.56-35.42-33.99-3.43-7.9-6.12-16.09-7.79-24.54-3.76-13.69-4.49-27.92-6.29-41.94-1.99-22.28-5.94-44.33-8.58-66.54-1.1-10.95-3.2-21.78-3.93-32.77-2.03-13.7-3.19-27.51-4.66-41.27-0.31-9.7-1.72-19.32-2.47-28.98-2.83-29.4-5.02-58.84-6.74-88.31 3.49-12.12 6.25-24.44 8.02-36.93 0.22 1.17 0.46 2.35 0.72 3.54 11.02-0.92 21.89 2.05 32.91 1.73 11.04-0.32 22.12 0.54 33.13-0.71 9.441-0.449 18.671-2.619 27.961-4.239m2.24 76.09c-10.77 2.69-17.94 14.48-16.04 25.27 1.35 6.51 3.63 12.8 6.21 18.92 4.31 9.67 8.05 19.61 13.03 28.98 6.13 12.88 13.29 25.51 23.14 35.95 5.68 5.01 12.45 9.64 20.29 10 6.2 0.36 13.33-0.74 17.38-5.96 4.99-5.08 4.82-12.96 2.75-19.3-2.71-7.8-7.01-14.91-11.12-22.03-4.08-6.73-7.05-14.04-11.13-20.77-5.21-10.17-10.34-20.38-15.36-30.64-2.57-6.3-5.34-12.99-11.08-17.07-5.01-4.06-11.96-4.77-18.07-3.35z" fill="#f2f2f2" stroke="#c8c8c8" stroke-linecap="round" stroke-linejoin="round"/>
 <path d="m414.19 895.55c5.91-0.22 12.02-0.85 17.34-3.64-0.04 0.83-0.08 1.67-0.12 2.52 10.31 3.15 20.32 7.23 30.68 10.24 7.93 2.39 16.18 4.03 23.5 8.08 0.12-1.98 1.0031 6.0913 1.0631 4.1313 1.47 9.58 1.3769 9.2787 3.6369 18.739 1.59 6.71 3.16 13.43 4.91 20.1-2.57 32.09-5.2 64.18-8.67 96.18-0.61 6.99-1.74 13.94-2.06 20.96-2.17 22.06-5.34 44.01-8.01 66.01-5.03 37.5-11.17 74.83-16.61 112.26-2.72 14.93-5.59 30.49-14.4 43.21-6.27 9.5-15.74 16.78-26.45 20.6-4.6 1.6-9.29 2.93-14.02 4.07-15.3 1.52-30.8 2.05-46.08-0.04-5.5-0.44-10.86-1.86-16.35-2.26-11.68-1.61-23.26-4.41-34.36-8.4-8.88-3.53-17.66-8.49-23.37-16.37-4.5-6.01-6.81-13.58-6.55-21.07-0.3-9.03 0.85-17.98 1.66-26.94 1.834-20.293 3.737-40.57 5.701-60.837 0.96-9.91 1.273-20.069 2.232-30.056 0.464-4.827 1.273-9.502 1.672-14.328 0.426-5.154 0.878-10.305 1.343-15.456 1.821-20.306 3.756-40.604 5.619-60.907 0.843-9.188 1.916-18.386 2.123-27.617 0.78-4.16 0.93-8.4 1.47-12.58 0.39-3.84 0.86-7.67 1.43-11.48 29.77 0.09 59.58 0.05 89.37 0.06 1.53 0.04 3.07 0.16 4.6 0.36-1.64 1.18-3.68 1.12-5.6 1.18-10.07 0-20.13-0.17-30.2-0.05-0.9 4.44-2.74 8.6-4.96 12.53-4.47 9.41-9.88 18.33-14.28 27.78-5.29 11.12-12.18 21.4-17.61 32.46-2.15 4.64-3.97 9.64-3.88 14.84 0.16 5.83 3.56 11.61 8.9 14.14 7.74 3.59 17.28 3 24.49-1.58 6.94-4.53 13.53-9.92 18.11-16.92 9.46-13.08 15.83-28.01 22.27-42.72 3.31-7.77 7.23-15.31 9.62-23.44 1.87-6.54 2.84-13.95-0.64-20.15-0.02-0.17-0.07-0.51-0.09-0.69 3.79-1.14 7.46-2.79 10.56-5.29 8.21-6.14 12.19-16.36 13.69-26.21 1.53-13.16 0.08-26.57-3.52-39.29-2.94-13.999-5.71-28.039-8.16-42.129z" fill="#f2f2f2" stroke="#c8c8c8" stroke-linecap="round" stroke-linejoin="round"/>
 <path d="m495.2 955.72c3.04 7.53 5.4 15.74 11.08 21.79 3.14 3.45 8.97 4.88 12.73 1.56 6.34-5.57 8.89-13.99 12.23-21.46 1.72 29.47 3.91 58.91 6.74 88.31 0.75 9.66 2.16 19.28 2.47 28.98-15.51 0.92-31.11 0.76-46.6-0.42-3.19-0.18-6.3-0.86-9.38-1.62 0.32-7.02 1.45-13.97 2.06-20.96 3.47-32 6.1-64.09 8.67-96.18z" fill="#00c2b9" stroke="#00c2b9" stroke-width=".5"/>
 <path d="m636.22 997.09c6.11-1.42 13.06-0.71 18.07 3.35 5.74 4.08 8.51 10.77 11.08 17.07 5.02 10.26 10.15 20.47 15.36 30.64 4.08 6.73 7.05 14.04 11.13 20.77 4.11 7.12 8.41 14.23 11.12 22.03 2.07 6.34 2.24 14.22-2.75 19.3-4.05 5.22-11.18 6.32-17.38 5.96-7.84-0.36-14.61-4.99-20.29-10-9.85-10.44-17.01-23.07-23.14-35.95-4.98-9.37-8.72-19.31-13.03-28.98-2.58-6.12-4.86-12.41-6.21-18.92-1.9-10.79 5.27-22.58 16.04-25.27z" fill="#fff" stroke="#fff" stroke-width=".5"/>
 <path d="m300.71 1010.6c23.39-0.02 46.78 0.09 70.17 0.01 10.29-0.12 20.7 0.85 30.83-1.43 3.48 6.2 2.51 13.61 0.64 20.15-2.39 8.13-6.31 15.67-9.62 23.44-6.44 14.71-12.81 29.64-22.27 42.72-4.58 7-11.17 12.39-18.11 16.92-7.21 4.58-16.75 5.17-24.49 1.58-5.34-2.53-8.74-8.31-8.9-14.14-0.09-5.2 1.73-10.2 3.88-14.84 5.43-11.06 12.32-21.34 17.61-32.46 4.4-9.45 9.81-18.37 14.28-27.78 2.22-3.93 4.06-8.09 4.96-12.53 10.07-0.12 20.13 0.05 30.2 0.05 1.92-0.06 3.96 0 5.6-1.18-1.53-0.2-3.07-0.32-4.6-0.36-29.79-0.01-59.6 0.03-89.37-0.06l-0.81-0.09z" fill="#fff" stroke="#fff" stroke-width=".5"/>
 <path d="m476.46 1138.9c2.67-22 5.84-43.95 8.01-66.01 3.08 0.76 6.19 1.44 9.38 1.62 15.49 1.18 31.09 1.34 46.6 0.42 1.47 13.76 2.63 27.57 4.66 41.27 0.73 10.99 2.83 21.82 3.93 32.77 2.64 22.21 6.59 44.26 8.58 66.54 1.8 14.02 2.53 28.25 6.29 41.94 1.67 8.45 4.36 16.64 7.79 24.54 6.53 15.43 19.14 28.96 35.42 33.99 6.69 2.28 13.6 4.25 20.7 4.52 14.24 0.38 28.57 0.44 42.64-2.06-0.128 0.023-0.031 9.197-0.057 10.059-0.104 3.417-0.285 6.832-0.507 10.243-0.444 6.825-1.057 13.638-1.568 20.459-0.255 3.409-0.486 6.82-0.657 10.234-0.159 3.184-2e-3 6.403-0.254 9.553-0.904 11.283-2.013 22.57-2.267 33.892-1.21 11.3-0.25 22.72-1.49 34.03-0.64 18.66 0.05 37.36-1.06 56.01 0.03 27.99-0.61 56.02 0.55 84 0.1 14.35 0.1 28.71 0.33 43.06-0.11 8.64 1.07 17.22 0.88 25.86 0.26 7.36-0.07 14.74 0.67 22.08 0.54 8.08 0.11 16.2 0.78 24.27 0.97 7.88 0.06 15.88 1.26 23.75 0.8 15.59 1.83 31.19 3.6 46.72 3.2 19.64 6.33 39.38 12.29 58.42 1.77 5.65 3.53 11.3 5.25 16.98-0.86 0.77-1.45 1.91-2.54 2.4-10.59 4.62-22.09 6.39-33.5 7.56-10.66-0.47-21.42 0.48-32-1.28-8.75-1.19-17.68-3.09-25.23-7.91-5.32-3.43-9.45-9.33-9.14-15.87 0.6-24.62-1.32-49.2-2.34-73.78-0.65-13.75-1.49-27.48-2.32-41.22-0.6-18.39-2.68-36.69-3.18-55.07-1.28-11.37-0.61-22.84-1.66-34.22-1.86-38.58-4.04-77.16-4.26-115.78-1.31-11.31-0.32-22.71-1.69-34.01-0.53-23.38-2.89-46.66-4.73-69.95-3.89-47.58-8.9-95.05-14.33-142.48-1.59-11.45-2.5-23-4.5-34.39-2.03-12.38-4.32-25.18-11.09-35.97-3.39-5.63-9.58-9.15-16.02-9.91-7.74-0.88-15.33 1.28-22.88 2.61-3.69 0.61-7.34 1.44-10.95 2.39 0.24 1.88 0.49 3.77 0.64 5.68 0.14 2.05-1.2 3.83-1.73 5.77-2 6.21-2.53 12.79-2.51 19.29-1.39 16.62-0.63 33.34-0.75 50-0.1 17.68 1.02 35.31 0.67 53 0.34 10.01-0.8 19.98-0.65 30 0.199 13.346-0.225 26.699 0.037 40.047 0.272 13.838 0.604 27.674 0.996 41.509 0 27.213 1.813 54.556 3.014 81.738 1.081 24.446 2.054 48.895 3.191 73.339 1.289 27.722 2.577 55.444 3.866 83.165 0.456 9.8 1.42 19.699 1.42 29.507 1.268 27.671 2.629 55.337 4.082 82.998 0 11.311 1.211 22.761 1.836 34.056 0.602 10.881 2.144 21.797 3.448 32.66 0.18 2.06 0.25 4.14 0.36 6.23l-1.02 0.02c-6.98 0.39-13.88-1.01-20.85-0.93-9.26-0.11-18.54 0.36-27.78-0.43-11.71-2.82-23.75-5.08-34.59-10.55-6.39-3.21-12.61-8-14.96-15.01-1.81-5.1 0.35-10.34 1.3-15.35 1.74-8.89 1.21-18.01 1.36-27-0.11-16.99 0.41-34.01-0.96-50.96 0.16-18.4-1.98-36.7-2.25-55.08-1.25-10.96-0.68-22.01-1.4-33.01-0.93-11.98-0.91-24.01-1.85-35.99-0.88-10.73-0.69-21.49-1.46-32.22-0.72-11.58-0.3-23.2-1.07-34.77-0.29-13.66-0.06-27.34-1.28-40.96-4.73-58.29-13.7-116.11-22.15-173.94-0.62-4.41-0.9-8.94-2.66-13.07 10.93 0.62 22.15 0.81 32.83-1.88 4.73-1.14 9.42-2.47 14.02-4.07 10.71-3.82 20.18-11.1 26.45-20.6 8.81-12.72 11.68-28.28 14.4-43.21 5.44-37.429 11.58-74.759 16.61-112.26z" fill="#394f50" stroke="#394f50" stroke-width=".5"/>
 <path d="m496.8 1188.8c7.55-1.33 15.14-3.49 22.88-2.61 6.44 0.76 12.63 4.28 16.02 9.91 6.77 10.79 9.06 23.59 11.09 35.97 2 11.39 2.91 22.94 4.5 34.39 5.43 47.43 10.44 94.9 14.33 142.48 1.84 23.29 4.2 46.57 4.73 69.95 1.37 11.3 0.38 22.7 1.69 34.01 0.22 38.62 2.4 77.2 4.26 115.78 1.05 11.38 0.38 22.85 1.66 34.22 0.5 18.38 2.58 36.68 3.18 55.07 0.83 13.74 1.67 27.47 2.32 41.22 1.02 24.58 2.94 49.16 2.34 73.78-0.31 6.54 3.82 12.44 9.14 15.87 7.55 4.82 16.48 6.72 25.23 7.91 10.58 1.76 21.34 0.81 32 1.28-9.03 1.45-18.19 0.59-27.28 0.93-19.76-0.05-39.49 0.93-59.23 1.63-1.08-0.08-2.14-0.21-3.19-0.39-0.478-0.082 0.636-36.396 0.609-39.919-0.105-13.812-0.446-27.622-1.024-41.422-0.339-8.086-1.365-16.332-1.365-24.399-0.522-2.922-0.053-5.842-0.173-8.758-0.142-3.459-0.281-6.917-0.421-10.376-0.281-6.918-0.562-13.835-0.843-20.753-0.562-13.835-1.123-27.67-1.685-41.505-0.651-16.04-1.988-32.125-1.988-48.177 0.074-6.602-0.918-13.151-0.995-19.745-0.08-6.89-0.247-13.78-0.476-20.666-0.669-20.132-2.56-40.202-2.56-60.339 0.329-6.56-0.507-13.255-0.778-19.814-0.285-6.903-0.593-13.806-0.924-20.707-0.663-13.803-1.418-27.601-2.267-41.394-1.28-20.813-2.026-41.911-4.551-62.614-1.63-10.57-2.01-21.26-3.17-31.86-0.95-5.68-1.03-11.45-1.87-17.13-0.88-4.88-0.23-9.89-1.29-14.73-0.69-5.96-0.72-11.98-1.65-17.92-0.91-5.02-0.18-10.17-1.08-15.18-1.2-5.83-0.28-11.84-1.39-17.67-2.11-19.49-2.34-39.31-7.45-58.36-0.82-3.2-2.02-6.39-4.12-8.97-1.54-2.44-4.74-1.35-7.12-1.59-9.13 0.4-18.34-0.7-27.4 0.67-0.15-1.91-0.4-3.8-0.64-5.68 3.611-0.952 7.261-1.782 10.951-2.392z" fill="#182e30" stroke="#182e30" stroke-width=".5"/>
 <path d="m342.55 1316.7c5.49 0.4 10.85 1.82 16.35 2.26 15.28 2.09 30.78 1.56 46.08 0.04-10.68 2.69-21.9 2.5-32.83 1.88-7.89-0.32-15.76-1.02-23.56-2.24-2.31-0.44-4.59-1-6.84-1.64l0.8-0.3z" enable-background="new " fill="#939b9b" opacity=".95" stroke="#939b9b" stroke-width=".5"/>
 <path d="m348.59 1318.6c7.8 1.22 15.67 1.92 23.56 2.24 1.76 4.13 2.04 8.66 2.66 13.07 8.45 57.83 17.42 115.65 22.15 173.94 1.22 13.62 0.99 27.3 1.28 40.96 0.77 11.57 0.35 23.19 1.07 34.77 0.77 10.73 0.58 21.49 1.46 32.22 0.94 11.98 0.92 24.01 1.85 35.99 0.72 11 0.15 22.05 1.4 33.01 0.27 18.38 2.41 36.68 2.25 55.08 1.37 16.95 0.85 33.97 0.96 50.96-0.15 8.99 0.38 18.11-1.36 27-0.95 5.01-3.11 10.25-1.3 15.35 2.35 7.01 8.57 11.8 14.96 15.01 10.84 5.47 22.88 7.73 34.59 10.55-24.49 0.54-49.85 1.19-73.07-7.86-2.13-0.76-4.55-2.44-3.45-5.01 3.5-13.06 5.87-26.38 7.61-39.77 2.72-11.88 2.07-24.18 3.31-36.24 0.09-14 0.48-28.04-0.7-42-0.42-6.35-0.21-12.7-0.21-19.04 0.03-6.69-1.33-13.3-1.09-19.99 0.3-10.03-1.39-19.97-1.67-29.97-0.12-7.05-1.29-14.03-1.27-21.07 0.05-5.69-0.97-11.31-1.05-16.98-0.07-4.08-0.01-8.16-0.56-12.2-1.71-11.3-1.5-22.78-3.06-34.1-0.61-5.23-1.45-10.45-1.44-15.72 0.06-4.72-1.32-9.31-1.17-14.02 0.08-5.36-1.31-10.58-1.55-15.91-0.17-5.73-1.68-11.32-1.5-17.07-1.15-7.18-0.91-14.5-2.44-21.61-0.84-9.8-1.72-19.59-3.07-29.33-0.54-9.04-1.81-18.01-3.04-26.98-1.68-9.45-1.94-19.09-3.93-28.48-2.73-22.96-6.64-45.76-10.18-68.59-0.49-6.09-2.06-12.11-2-18.21z" fill="#182e30" stroke="#182e30" stroke-width=".5"/>
 <path d="m378.91 1574.6c1.56 11.32 1.35 22.8 3.06 34.1 0.55 4.04 0.49 8.12 0.56 12.2 0.08 5.67 1.1 11.29 1.05 16.98-0.02 7.04 1.15 14.02 1.27 21.07 0.28 10 1.97 19.94 1.67 29.97-0.24 6.69 1.12 13.3 1.09 19.99 0 6.34-0.21 12.69 0.21 19.04 1.18 13.96 0.79 28 0.7 42-1.24 12.06-0.59 24.36-3.31 36.24 0.14-9.82 2.44-19.49 2.02-29.32 0.01-9.34 1.6-18.66 0.62-28-1.28-12.29-0.13-24.67-0.8-36.98-1.89-11.85-0.21-23.96-2.27-35.79-1.17-7.36 0.08-14.84-0.96-22.2-0.47-3.31-0.72-6.65-0.72-9.97 0.2-10.08-2.44-19.94-1.9-30.02-1.54-8.67-0.42-17.52-1.97-26.17-0.68-4.35-0.88-8.78-0.32-13.14z" enable-background="new " fill="#101c1c" opacity=".51" stroke="#101c1c" stroke-width=".5"/>
 <path d="m381.05 1850.9c23.22 9.05 48.58 8.4 73.07 7.86 9.24 0.79 18.52 0.32 27.78 0.43 6.97-0.08 13.87 1.32 20.85 0.93-0.19 0.89-0.36 1.81-0.51 2.75-15.36 8.05-32.15 12.8-48.84 17.21-30.98 7.59-62.65 12.29-94.47 14.41-9.05-0.31-18.01 1.35-27.05 1.06-6.71-0.04-13.43 0.19-20.11-0.58-8.47-0.97-17.31 0.61-25.41-2.71 1.94-2.15 4.82-2.69 7.43-3.56 9.83-3.4 19.31-7.7 29.13-11.11 9.02-3.77 18.01-7.64 26.98-11.53 10.78-4.21 20.9-9.85 31.15-15.16z" fill="#582200" stroke="#582200" stroke-width=".5"/>
 <path d="m652.17 1858c11.41-1.17 22.91-2.94 33.5-7.56 10.02 4.87 19.79 10.28 30.08 14.62 9.17 4.37 18.8 7.65 28.01 11.94 8.64 3.51 17.43 6.62 26.08 10.12 4.16 1.75 8.69 2.63 12.54 5.1-3.64 1.48-7.54 2.32-11.48 2.3-9.36-0.12-18.65 1.51-28.02 1.06-8.35 0.22-16.67-0.17-24.98-0.93-10.92 0.2-21.74-1.25-32.57-2.4-23-2.18-45.77-6.43-68.23-11.81-11.07-3.61-22.36-6.56-33.35-10.42-6.1-1.95-11.77-5.14-18.09-6.38v-3.08c19.74-0.7 39.47-1.68 59.23-1.63 9.09-0.34 18.25 0.52 27.28-0.93z" fill="#582200" stroke="#582200" stroke-width=".5"/>
 <path d="m453.4 1880.1c16.69-4.41 33.48-9.16 48.84-17.21 0.48 7.01-5.76 11.85-10.93 15.44-16.24 10.19-35.07 14.86-53.46 19.52-20.8 4.61-41.8 8.42-63 10.5-6.7 0.25-13.28 1.8-19.99 1.89-18.1 0.61-36.59 1.8-54.3-2.8-5.54-1.56-11.21-3.72-15.15-8.09-1.82-1.55-0.96-4.17-1.17-6.22 0.67-0.39 1.38-0.67 2.12-0.85 8.1 3.32 16.94 1.74 25.41 2.71 6.68 0.77 13.4 0.54 20.11 0.58 9.04 0.29 18-1.37 27.05-1.06 31.82-2.12 63.49-6.82 94.47-14.41z" fill="#310" stroke="#310" stroke-width=".5"/>
 <path d="m565.66 1863.6c6.32 1.24 11.99 4.43 18.09 6.38 10.99 3.86 22.28 6.81 33.35 10.42 22.46 5.38 45.23 9.63 68.23 11.81 10.83 1.15 21.65 2.6 32.57 2.4 8.31 0.76 16.63 1.15 24.98 0.93 9.37 0.45 18.66-1.18 28.02-1.06 3.94 0.02 7.84-0.82 11.48-2.3 2.43 1.03 3.12 3.78 1.84 6.05-3.5 5.27-9.84 7.34-15.57 9.16-12.98 3.28-26.47 3.61-39.78 3.4-10.18-0.28-20.39-0.6-30.47-2.14-10.68-0.64-21.26-2.2-31.8-4.05-13.95-1.7-27.68-4.71-41.31-8.11-9.06-1.78-17.62-5.27-26.47-7.79-8.56-3.23-17.17-6.71-24.51-12.29-4.46-2.88-7.84-7.51-8.65-12.81z" fill="#310" stroke="#310" stroke-width=".5"/>
 <path transform="translate(-53,-32)" d="m568.11 951.56c23.31 4.3433 30.659 4.6158 45.148 6.3841 15.498 1.5376 34.751 0.54102 45.761-0.70898 9.44-0.45 18.671-2.6202 27.961-4.2402 27.68-6.14 54.679-17.111 77.379-34.301 33.4-24.02 56.001-62.1 62.221-102.68 2.65-17.53 3.8001-35.399 1.8301-53.049-0.09-7.98-2.2406-15.78-2.1406-23.75-0.25999 0.51-0.51953 1.0191-0.76953 1.5391-0.64-9.31-3.2703-18.35-5.3203-27.43-4.65-17.45-9.7705-34.88-17.48-51.26-8.3-18.01-19.459-34.611-32.359-49.631-4.86-5.37-9.4909-11.029-15.131-15.609-0.18 4.58-1.5299 9.2205-4.9199 12.48-6.97 7.19-17.259 8.9692-26.529 11.449-13.1 3.75-26.349 6.9209-39.529 10.381-6.02 1.55-12.391 1.6187-18.221 3.8887-2.58 0.91-4.4491 3.76-3.7891 6.5 0.71 3.68 3.4499 6.4813 6.1699 8.8613 6.29 5.34 11.8 11.52 17.75 17.24 4.81 4.54 8.6488 9.9893 13.469 14.529 2.83 2.84 6.03 5.3993 8.25 8.7793 2.05 2.78-0.13953 6.6898-3.0195 7.8398-4.58 2.02-9.3201 3.6813-13.83 5.8613-0.26-5.67 0.55961-11.41-0.65039-17.01-0.57 10.04-0.31852 20.108-0.72852 30.158-4.37 0.23-8.7511 0.18992-13.121 0.16992 0.52 1.57 1.0507 3.1612 1.7207 4.7012 8.02 16.31 14.059 33.689 17.109 51.629 0.86 8.3 2.2401 16.691 1.0801 25.041-1.22 9.98-3.4802 20.3-9.4902 28.59-3.23 4.68-6.4095 9.55-11.02 13-15.99 13.1-36.751 18.739-57.051 20.109-14.672 2.1276-33.742 0.39894-58.928-1.5126-25.185-1.9115-52.892-4.8858-52.892-4.8858-8.8-0.6-17.378-2.6707-26.068-3.9707-1.65-0.41-3.2699 0.0104-4.6699 0.90039 3.69 1.91 8.1984 4.4891 8.0684 9.2891 0.85 5.71-3.0002 10.301-6.6602 14.121 3.34 1.77 7.4217 3.1385 9.2617 6.7285 1.12 2.95 0.91898 6.3598-0.041 9.3398-1.59 3.8-5.1007 6.251-7.9707 9.041 3.62 0.75 8.0507 1.0398 10.221 4.5098 4.11 6.37 0.99961 14.96-4.6504 19.32-0.04 0.83-0.0791 1.6695-0.11914 2.5195 10.31 3.15 35.531 13.565 40.711 15.07s19.68 5.722 42.989 10.065z" fill="#f2f2f2" stroke="#c8c8c8" stroke-linecap="round" stroke-linejoin="round"/>
</svg>
