<?xml version="1.0" encoding="UTF-8"?>
<svg viewBox="0 0 211.49606 211.49606" xmlns="http://www.w3.org/2000/svg">
 <path transform="matrix(2.1696 0 0 2.1696 -725.72 -737.3)" d="m431.97 388.57c0 26.918-21.822 48.74-48.74 48.74s-48.74-21.822-48.74-48.74 21.822-48.74 48.74-48.74 48.74 21.822 48.74 48.74z" fill="#a50000"/>
 <path transform="matrix(-1.7933 0 0 1.7933 792.98 -591.06)" d="m431.97 388.57c0 26.918-21.822 48.74-48.74 48.74s-48.74-21.822-48.74-48.74 21.822-48.74 48.74-48.74 48.74 21.822 48.74 48.74z" fill="#fff"/>
 <g transform="matrix(1.5004 0 0 1.5004 -339 -791.03)">
  <path d="m302.1 632.18-5.7143-58.393h-3.0357l2.5-4.375h9.1071l-4.1964-14.42 5.4464-1.2946 4.2857 15.357 27.5 0.35714 1.7857 4.375h-3.0357l-8.3928 58.393z"/>
  <path d="m264.52 606.72c-5.2168 0-9.4296 4.114-9.625 9.2812h40.5c-0.19494-5.1677-4.4079-9.2812-9.625-9.2812h-21.25zm-9.1562 19.281c1.2654 3.8477 4.8743 6.625 9.1562 6.625h21.25c4.282 0 7.8596-2.7773 9.125-6.625h-39.531z"/>
  <path d="m254.02 618.14h42.221a1.6874 1.6874 0 0 1 1.6874 1.6874v2.3788a1.6874 1.6874 0 0 1 -1.6874 1.6874h-42.221a1.6874 1.6874 0 0 1 -1.6874 -1.6874v-2.3788a1.6874 1.6874 0 0 1 1.6874 -1.6874"/>
 </g>
 <path transform="matrix(-.69479 -.71921 -.71921 .69479 -222.82 -518.04)" d="m-772.69 187.52h191.53a2.4306e-5 2.4306e-5 0 0 1 2e-5 2e-5v19.153a2.4306e-5 2.4306e-5 0 0 1 -2e-5 2e-5h-191.53a2.4306e-5 2.4306e-5 0 0 1 -2e-5 -2e-5v-19.153a2.4306e-5 2.4306e-5 0 0 1 2e-5 -2e-5" fill="#a50000"/>
</svg>
