<?xml version='1.0' encoding='utf-8'?>
<svg xmlns="http://www.w3.org/2000/svg" width="210mm" height="297mm" viewBox="0 0 210 297" version="1.1" id="svg8"> <defs id="defs2"/> <metadata id="metadata5"> </metadata> <g id="layer1"> <path d="m 79.0736,137.48854 c -0.301966,-1.44866 -0.701437,-2.27517 -1.905523,-3.07141 -1.548029,-1.02371 -3.955909,-1.70346 -6.91263,-2.16366 -0.302247,-0.25847 -0.858242,-0.54664 -1.312214,-0.72898 1.579528,-1.44456 3.211766,-2.90669 4.487989,-4.57933 -0.5338,0.0476 -0.919157,0.16953 -1.299626,0.29395 0.894576,-1.36387 1.712023,-2.74313 2.416893,-4.14491 -0.580377,0.001 -1.186825,0.23691 -1.805058,0.58006 0.345146,-0.60675 0.827445,-1.03493 1.461516,-1.26535 0.595653,-0.21648 1.325224,-0.25848 2.20082,-0.11027 -0.309989,-0.74024 -0.64557,-1.58308 -1.277213,-2.2887 -0.47585,-0.53158 -1.212177,-0.91139 -1.714947,-1.52525 -0.423223,-0.51673 -0.622192,-1.3509 -1.063468,-1.87141 0.166105,-0.51822 0.0844,-1.03644 -0.166808,-1.55448 2.333705,-5.70295 3.65041,-11.11729 4.100554,-16.285694 0.165401,-1.899151 -0.09694,-3.898427 -0.157978,-5.733219 -0.06858,-2.061551 0.103278,-4.089707 -0.148057,-6.040124 -0.214865,-1.667764 -1.194161,-3.355681 -1.282976,-4.914062 0.163015,-2.973763 -0.853912,-3.667896 -3.294917,-1.610903 -3.46356,2.569369 -6.380513,5.466775 -8.906587,8.598661 -1.3822,1.71368 -2.247663,3.593064 -3.450973,5.412117 -1.000293,1.512205 -2.207468,2.875216 -3.177928,4.443991 -0.911628,1.473673 -1.595903,3.147603 -2.2631,4.737873 -0.177092,-0.0452 -0.344922,-0.0534 -0.492349,0.0197 0.258436,-0.76555 0.335768,-1.53103 0.148365,-2.29666 -0.515716,0.0264 -0.947843,0.30365 -1.296433,0.83168 0.01824,-0.14373 0.02902,-0.29124 -0.01224,-0.46476 -1.036334,0.1112 -1.574287,0.6824 -1.885839,1.4626 -5.367482,-3.827926 -10.943349,-7.591112 -16.876532,-11.067384 -1.5406,-0.902625 -3.271072,-1.620234 -4.832193,-2.510439 -1.297095,-0.739605 -2.283929,-1.677179 -3.613071,-2.396975 -1.576631,-0.816046 -3.113802,-0.684275 -3.989503,-0.315564 -0.875705,0.3687 -0.40865,1.211322 -1.264631,2.527824 -1.678461,5.933267 -0.324035,12.135348 2.375766,17.769368 1.907825,3.98142 4.700312,8.07014 9.689284,11.34334 1.929202,3.42022 4.179026,6.83428 3.129125,10.31187 0.641683,0.0278 1.232454,0.15755 1.779863,0.37398 0.620353,0.24531 0.474208,0.64391 1.704828,1.04835 -1.720422,0.28923 -1.561043,0.96343 1.345548,2.20046 -1.895009,0.45006 -1.425651,1.08831 -0.0496,1.53842 0.66568,0.21772 1.591683,0.24738 2.473208,0.46511 -0.226046,0.0337 -0.333731,0.14136 -0.323144,0.32314 0.545006,0.2096 0.914316,0.40158 1.163338,0.58168 -0.767509,0.76355 -1.691366,1.32284 -2.843716,1.58343 0.907825,0.49254 1.917281,0.43576 2.972976,0.12926 -1.278729,1.61848 -3.10072,2.46445 -3.991118,3.81144 -0.534269,0.80827 -0.85362,1.65388 -0.856131,2.55461 0.718864,-0.26135 1.402904,-0.55769 1.84195,-1.09872 -0.381564,1.9972 -0.712331,3.92305 -0.662747,5.31384 0.03287,0.92119 -0.143676,2.06762 0.69507,1.92471 0.330766,1.36837 0.595569,2.22908 0.806105,2.67296 0.282907,0.59644 0.620989,0.65639 0.741538,-0.0251 0.06311,-0.35695 -0.163417,-1.10554 -0.02886,-1.7107 0.122107,0.38625 0.140316,0.72785 0.678612,1.2926 0.149855,1.52728 0.352253,3.07429 0.589713,4.63443 0.437994,2.87769 1.580821,5.29849 1.563232,8.72658 -3.226172,0.0234 -6.349977,0.78934 -8.85281,1.85617 -1.768765,0.75392 -3.369592,0.82233 -4.374828,3.19309 -1.160953,3.07523 -2.829186,6.89894 -3.416597,9.46648 -0.376531,1.64587 -0.232689,3.07118 0.85238,2.72755 0.224483,0.94976 0.614055,1.6243 1.244808,1.89685 0.848118,0.61078 1.625553,0.82389 2.342776,0.69831 0.812763,-0.14231 1.700624,-0.51665 2.373927,-1.44354 1.984771,-0.60406 3.375239,-1.55284 4.081834,-2.85583 0.623401,-1.14964 1.57797,-3.08306 0.211515,-4.28273 0.228635,-0.63798 0.287909,-1.30983 0.177838,-2.01541 1.649899,-0.49281 3.310339,-0.85578 4.986695,-1.29048 1.67635,-0.43472 3.368649,-0.94113 5.082121,-1.29398 2.50068,-0.51497 5.046839,-0.93038 7.654902,-1.20926 -0.05927,0.3754 -0.118563,0.75084 -0.177837,1.12626 -2.153331,1.70461 -3.520448,3.45927 -4.288854,5.25183 -0.98798,2.30484 -0.986412,4.67254 -0.393995,7.07772 -0.848827,1.81621 -1.997275,3.22056 -3.373697,4.3113 -1.769745,1.40243 -3.34137,0.71788 -6.246596,3.11204 -0.718541,0.81537 -1.227145,1.52994 -1.467373,2.14256 -0.490239,1.24996 0.261719,2.55639 2.374,2.46726 1.51333,0.25895 3.054523,0.23918 4.623574,-0.0593 3.679139,-0.37841 4.893082,0.62059 6.643211,-0.58863 1.197412,-0.82737 1.741716,-2.401 2.663227,-4.50916 0.740934,-0.01 1.418384,-0.12568 1.956129,-0.47422 0.660595,0.51927 1.727575,0.83542 3.200934,0.94843 -0.871558,1.53858 -1.155633,2.6692 -0.789579,3.34825 0.343932,0.63802 1.083855,1.56328 2.804996,0.68256 1.698498,1.99963 4.159828,0.74539 6.435166,0.83397 2.337154,0.091 4.547925,-0.35628 5.657267,-1.07107 2.826634,0.41634 4.96759,0.62937 7.870357,0.38535 3.374083,-0.28361 6.222869,0.40529 9.562301,-0.15247 2.946481,-0.49215 6.516365,-1.61372 9.360395,-2.48539 0.53802,0.3487 1.20461,0.48543 2.03964,0.58639 1.8861,0.22804 3.87053,0.0374 5.83278,0.18032 2.224,0.16198 4.42985,0.6515 6.61692,0.81737 10.17995,0.77209 20.75534,0.95383 30.7068,0.7408 5.48032,-0.11735 10.75845,-1.28768 16.19162,-1.35873 4.53331,-0.0593 9.25709,-0.2096 13.79923,-2.19991 1.8817,-0.82456 3.30567,-2.32058 5.09861,-3.90119 1.79296,-1.58059 3.95505,-3.24585 5.60628,-5.83124 -4.22954,-0.6454 -6.70178,-1.28326 -8.4671,-1.98329 -2.41917,-0.95924 -3.51092,-2.03533 -5.97859,-3.40764 -2.75708,-1.53326 -4.88435,-3.47469 -7.34073,-5.2623 -2.33535,-1.69957 -5.17114,-3.22963 -7.83467,-4.51327 -1.30081,-0.62688 -2.28987,-1.25529 -3.68263,-1.69961 -8.1649,-2.60496 -16.77837,-6.062 -24.66886,-3.76217 1.61041,-2.18331 3.33594,-4.25147 5.15708,-6.22405 -4.25511,-0.27863 -8.34148,0.49431 -12.03218,2.7907 -2.4445,1.521 -4.19704,3.87325 -6.8178,6.63429 1.05678,-1.73391 1.3071,-3.64068 0.88915,-5.69056 -4.73998,2.74659 -6.98273,6.30318 -7.82452,10.31414 -1.22746,-7.65176 -5.70283,-15.23753 -11.064184,-20.62957 -0.78568,-0.79021 -1.8713,-1.53442 -2.75196,-2.29057 -2.250574,-1.93229 -4.539933,-3.74615 -7.250831,-5.15191 -1.904314,-0.9875 -4.253389,-1.56924 -6.358475,-2.25341 -1.349368,-0.4385 -2.376924,-1.03006 -3.852008,-1.43304 z" style="fill:#000000;fill-rule:evenodd;stroke-width:0.13784765" id="path1291"/> </g> </svg>